<svg width="203" height="24" viewBox="0 0 203 24" fill="none" xmlns="http://www.w3.org/2000/svg">
<path d="M24.0211 11.9997L12.0234 23.974L0.0258053 11.9997L12.0234 0.0253906L24.0211 11.9997ZM5.08494 11.9997L12.0234 18.9247L18.9619 11.9997L12.0234 5.0747L5.08494 11.9997Z" fill="#310454"/>
<path d="M13.6677 2.60645V19.2403H10.0903V2.60645H13.6677Z" fill="#310454"/>
<path d="M39.3681 8.34373H34.2149V5.33507H44.5975L38.9291 15.656H44.4258V18.6647H33.7568L39.3681 8.34373ZM46.2873 5.33507H55.4676V8.34373H49.5319V10.6289H54.895V13.3139H49.5319V15.656H55.4676V18.6647H46.2873V5.33507ZM67.2373 18.7218L60.939 11.105V18.6647H57.6754V5.27808H60.0038L66.3022 12.8949L66.3212 5.33521H69.5658V18.7218H67.2373ZM74.9622 8.2677H71.1832V5.33507H82.0048V8.26756H78.2258V18.6646H74.9622V8.2677ZM90.7396 13.2187L94.2895 18.6647H90.606L86.7888 12.6093V18.6647H83.5824V5.33521H88.7165C91.5602 5.33521 93.7933 6.72528 93.7933 9.42927C93.7933 11.4097 92.5909 12.6855 90.7396 13.2187ZM86.7888 8.02015V10.9907H88.5447C89.6898 10.9907 90.5105 10.4956 90.5105 9.50544C90.5105 8.51525 89.6898 8.02015 88.5447 8.02015H86.7888ZM94.6609 18.6647L100.291 5.27808H102.658L108.307 18.6647H104.853L104.013 16.6462H98.9361L98.1154 18.6647H94.6609ZM99.9476 13.9613H103.02L101.474 10.1719L99.9476 13.9613ZM109.621 18.6647V5.33521H112.885V15.6751H118.553V18.6647H109.621ZM129.732 18.7218L123.434 11.105V18.6647H120.17V5.27808H122.499L128.797 12.8949L128.816 5.33521H132.061V18.7218H129.732ZM134.021 12C133.964 8.19153 136.998 4.97341 141.14 5.03053C145.282 4.97341 148.297 8.19153 148.24 12C148.297 15.8084 145.282 19.0265 141.14 18.9694C136.998 19.0265 133.964 15.8084 134.021 12ZM144.919 12C144.919 9.88628 143.507 8.09632 141.14 8.09632C138.754 8.09632 137.342 9.88628 137.342 12C137.342 14.1136 138.754 15.9036 141.14 15.9036C143.507 15.9036 144.919 14.1136 144.919 12ZM157.353 13.2187L160.903 18.6647H157.22L153.403 12.6093V18.6647H150.196V5.33521H155.33C158.174 5.33521 160.407 6.72528 160.407 9.42927C160.407 11.4097 159.205 12.6855 157.353 13.2187ZM153.403 8.02015V10.9907H155.159C156.304 10.9907 157.124 10.4956 157.124 9.50544C157.124 8.51525 156.304 8.02015 155.159 8.02015H153.403ZM162.74 18.6647V5.33521H168.236C172.34 5.33521 175.164 8.05824 175.164 12C175.164 15.9417 172.34 18.6647 168.236 18.6647H162.74ZM166.003 15.6751H167.855C170.469 15.6751 171.844 14.3231 171.844 12.019C171.844 9.7149 170.469 8.32483 167.855 8.32483H166.003V15.6751ZM177.167 5.33521H186.347V8.34387H180.412V10.6289H185.775V13.3139H180.412V15.656H186.347V18.6647H177.167V5.33521ZM198.116 18.7218L191.818 11.105V18.6647H188.554V5.27808H190.883L197.181 12.8949L197.2 5.33521H200.445V18.7218H198.116Z" fill="#310454"/>
</svg>
