<svg width="70" height="28" viewBox="0 0 70 28" fill="none" xmlns="http://www.w3.org/2000/svg">
<g clip-path="url(#clip0_106_23)">
<path d="M46.7059 20.5335C46.7059 23.4771 46.0248 25.7027 43.3723 27.7847L40.4689 25.3437C41.9744 23.9078 42.4762 22.8309 42.512 21.0719H40.1821V14.4668H46.7059V20.5335Z" fill="#1D1D1B"/>
<path d="M46.706 3.51807H40.2539V10.0873H46.706V3.51807Z" fill="#1D1D1B"/>
<path d="M0 21.072V0.251465H15.6283V5.20531H6.27283V8.86685H14.9114V13.8207H6.27283V21.072H0Z" fill="#1D1D1B"/>
<path d="M30.2173 21.072V12.9233H24.1237V21.072H17.7075V0.251465H24.1237V7.57454H30.1815V0.251465H36.6335V21.072H30.2173Z" fill="#1D1D1B"/>
<path d="M50.3618 21.072V0.251465H59.2513C63.3376 0.251465 65.094 0.682234 66.3486 1.50787C68.1767 2.72839 69.0728 4.70275 69.0728 7.28736C69.0728 9.69249 68.1408 11.7745 66.4561 12.9951C65.0223 14.0361 63.1225 14.5386 59.8965 14.5386H56.7422V21.072H50.3618ZM59.1796 9.69249C60.4342 9.69249 61.3303 9.513 61.8321 9.11813C62.2981 8.72326 62.4773 8.1489 62.4773 7.46685C62.4773 6.82069 62.2981 6.24634 61.8321 5.81557C61.3662 5.3848 60.6134 5.24121 59.2872 5.24121H56.7422V9.69249H59.1796Z" fill="#1D1D1B"/>
</g>
<defs>
<clipPath id="clip0_106_23">
<rect width="70" height="28" fill="white"/>
</clipPath>
</defs>
</svg>
