<svg width="102" height="72" viewBox="0 0 102 72" fill="none" xmlns="http://www.w3.org/2000/svg">
<path d="M97.6382 51.717V50.435H95.1061V49.3827H96.8749V48.1491H95.1061V47.2298H97.5898V45.9478H93.5311V51.717H97.6382ZM89.2301 50.3745V47.2903H89.7874C90.2114 47.2903 90.5143 47.4234 90.7082 47.6774C90.902 47.9313 91.0111 48.3063 91.0111 48.778C91.0111 49.2739 90.9141 49.6609 90.7082 49.9512C90.5022 50.2414 90.1751 50.3866 89.7389 50.3866H89.2301V50.3745ZM89.6662 51.717C90.1266 51.717 90.5386 51.6565 90.902 51.5235C91.2655 51.3904 91.5684 51.1969 91.8228 50.9429C92.0772 50.6889 92.259 50.3745 92.3922 50.0116C92.5255 49.6367 92.5861 49.2134 92.5861 48.7296C92.5861 47.7862 92.3438 47.0968 91.847 46.6372C91.3503 46.1776 90.6476 45.9478 89.7268 45.9478H87.6672V51.717H89.6662ZM86.4557 51.717V45.9478H85.0018V49.1045H84.9897L83.2693 45.9357H81.5126V51.7049H82.9664V48.3305H82.9785L84.9049 51.7049H86.4557V51.717ZM78.7745 49.5883C78.7745 49.9028 78.6897 50.1326 78.5322 50.3019C78.3625 50.4712 78.1445 50.5438 77.8537 50.5438C77.5629 50.5438 77.3448 50.4591 77.2116 50.3019C77.0662 50.1326 77.0056 49.9028 77.0056 49.5883V45.9478H75.4306V49.286C75.4306 49.6851 75.4669 50.0479 75.5517 50.3624C75.6366 50.6769 75.7698 50.9429 75.9637 51.1606C76.1575 51.3783 76.3998 51.5356 76.7027 51.6565C77.0056 51.7654 77.3812 51.8259 77.8295 51.8259C78.2777 51.8259 78.6533 51.7654 78.9683 51.6565C79.2833 51.5477 79.5499 51.3783 79.7437 51.1606C79.9497 50.9429 80.095 50.6769 80.192 50.3624C80.2889 50.0479 80.3373 49.6851 80.3373 49.286V45.9478H78.7623V49.5883H78.7745ZM74.9581 51.717L73.0923 48.0039L74.6916 45.9357H72.9954L71.3719 48.2337H71.3598V45.9357H69.7848V51.7049H71.3598V50.2293L72.0504 49.3343L73.2014 51.6928H74.9581V51.717ZM65.7503 48.4151V47.2298H66.453C66.5379 47.2298 66.6105 47.2419 66.6954 47.254C66.7802 47.2661 66.8529 47.2903 66.9255 47.3387C66.9982 47.375 67.0588 47.4355 67.1073 47.5201C67.1557 47.5927 67.18 47.7015 67.18 47.8346C67.18 47.9676 67.1557 48.0765 67.0952 48.1491C67.0467 48.2216 66.974 48.2821 66.9013 48.3305C66.8286 48.3789 66.7317 48.403 66.6469 48.4151C66.55 48.4272 66.4652 48.4393 66.3804 48.4393H65.7503V48.4151ZM69.0336 51.717L67.8827 49.1892C68.1492 49.0441 68.3673 48.8505 68.5248 48.6087C68.6823 48.3547 68.7671 48.0523 68.7671 47.7015C68.7671 46.5404 67.9796 45.9599 66.4046 45.9599H64.1753V51.7291H65.7503V49.6488H66.4773L67.3011 51.7291H69.0336V51.717ZM61.4494 49.5883C61.4494 49.9028 61.3646 50.1326 61.2071 50.3019C61.0374 50.4712 60.8194 50.5438 60.5286 50.5438C60.2378 50.5438 60.0197 50.4591 59.8865 50.3019C59.7411 50.1326 59.6805 49.9028 59.6805 49.5883V45.9478H58.1055V49.286C58.1055 49.6851 58.1418 50.0479 58.2267 50.3624C58.3115 50.6769 58.4447 50.9429 58.6386 51.1606C58.8324 51.3783 59.0747 51.5356 59.3776 51.6565C59.6805 51.7654 60.0561 51.8259 60.5044 51.8259C60.9526 51.8259 61.3282 51.7654 61.6432 51.6565C61.9582 51.5477 62.2248 51.3783 62.4186 51.1606C62.6246 50.9429 62.7699 50.6769 62.8669 50.3624C62.9638 50.0479 63.0123 49.6851 63.0123 49.286V45.9478H61.4372V49.5883H61.4494ZM55.9005 51.717V47.2178H57.3543V45.9357H52.8837V47.2178H54.3376V51.717H55.9005ZM50.2183 47.2298H50.2305L50.703 49.1892H49.7458L50.2183 47.2298ZM52.9443 51.717L51.2845 45.9478H49.2128L47.5529 51.717H49.1401L49.4429 50.4591H51.0058L51.3087 51.717H52.9443ZM46.8381 51.717V45.9478H45.3843V49.1045H45.3722L43.6518 45.9357H41.895V51.7049H43.3489V48.3305H43.361L45.2873 51.7049H46.8381V51.717ZM93.2888 41.1704V39.9851H93.9915C94.0763 39.9851 94.149 39.9972 94.2338 40.0093C94.3186 40.0214 94.3913 40.0456 94.464 40.094C94.5367 40.1302 94.5972 40.1907 94.6457 40.2754C94.6942 40.3479 94.7184 40.4568 94.7184 40.5898C94.7184 40.7229 94.6942 40.8317 94.6336 40.9043C94.5851 40.9769 94.5124 41.0373 94.4397 41.0857C94.367 41.1341 94.2701 41.1583 94.1853 41.1704C94.0884 41.1825 94.0036 41.1946 93.9188 41.1946H93.2888V41.1704ZM96.5721 44.4723L95.4211 41.9444C95.6876 41.7993 95.9057 41.6058 96.0632 41.3639C96.2207 41.1099 96.3055 40.8075 96.3055 40.4568C96.3055 39.2957 95.518 38.7152 93.943 38.7152H91.7138V44.4843H93.2888V42.404H94.0157L94.8395 44.4843H96.5721V44.4723ZM89.5451 37.2759H88.382V38.2676H89.5451V37.2759ZM87.8489 37.2759H86.7101V38.2676H87.8489V37.2759ZM88.9878 42.3436C88.9878 42.658 88.903 42.8878 88.7455 43.0572C88.5759 43.2265 88.3578 43.2991 88.067 43.2991C87.7762 43.2991 87.5582 43.2144 87.4249 43.0572C87.2795 42.8878 87.2189 42.658 87.2189 42.3436V38.7031H85.6439V42.0412C85.6439 42.4403 85.6803 42.8032 85.7651 43.1176C85.8499 43.4321 85.9832 43.6982 86.177 43.9159C86.3708 44.1336 86.6132 44.2908 86.916 44.4118C87.2189 44.5206 87.5945 44.5811 88.0428 44.5811C88.4911 44.5811 88.8666 44.5206 89.1816 44.4118C89.4966 44.3029 89.7632 44.1336 89.957 43.9159C90.163 43.6982 90.3084 43.4321 90.4053 43.1176C90.5022 42.8032 90.5507 42.4403 90.5507 42.0412V38.7031H88.9757V42.3436H88.9878ZM82.3606 44.4723V42.138H84.2022V40.9043H82.3606V39.9851H84.9291V38.7031H80.7977V44.4723H82.3606ZM77.6356 44.4723V38.7031H75.6244L74.5825 42.4766H74.5704L73.5769 38.7031H71.5415V44.4723H72.9954V40.8196H73.0075L73.9646 44.4723H75.2246L76.1818 40.8196H76.1939V44.4723H77.6356ZM68.7792 42.3436C68.7792 42.658 68.6944 42.8878 68.5369 43.0572C68.3673 43.2265 68.1492 43.2991 67.8584 43.2991C67.5677 43.2991 67.3496 43.2144 67.2163 43.0572C67.0709 42.8878 67.0104 42.658 67.0104 42.3436V38.7031H65.4353V42.0412C65.4353 42.4403 65.4717 42.8032 65.5565 43.1176C65.6413 43.4321 65.7746 43.6982 65.9684 43.9159C66.1623 44.1336 66.4046 44.2908 66.7075 44.4118C67.0104 44.5206 67.3859 44.5811 67.8342 44.5811C68.2825 44.5811 68.6581 44.5206 68.9731 44.4118C69.2881 44.3029 69.5546 44.1336 69.7484 43.9159C69.9544 43.6982 70.0998 43.4321 70.1967 43.1176C70.2936 42.8032 70.3421 42.4403 70.3421 42.0412V38.7031H68.7671V42.3436H68.7792ZM64.5873 44.4723V43.1902H62.0551V42.138H63.824V40.9043H62.0551V39.9851H64.5388V38.7031H60.4801V44.4723H64.5873ZM59.3897 39.9851C59.1959 39.4771 58.9051 39.1264 58.5417 38.9208C58.1661 38.7152 57.7057 38.6063 57.1605 38.6063C56.8576 38.6063 56.5789 38.6426 56.3245 38.7272C56.0701 38.8119 55.8399 38.9208 55.6582 39.0659C55.4764 39.211 55.3311 39.3925 55.222 39.586C55.113 39.7916 55.0645 40.0093 55.0645 40.2512C55.0645 40.6261 55.1372 40.9406 55.2826 41.1583C55.428 41.3881 55.6218 41.5695 55.8399 41.7026C56.0701 41.8356 56.3124 41.9444 56.5668 42.0049C56.8213 42.0775 57.0636 42.138 57.2938 42.2105C57.524 42.2831 57.7057 42.3557 57.8511 42.4403C57.9965 42.5371 58.0691 42.658 58.0691 42.8395C58.0691 43.0088 57.9965 43.1418 57.8511 43.2265C57.7057 43.3112 57.524 43.3595 57.318 43.3595C57.0393 43.3595 56.8213 43.287 56.6516 43.1297C56.482 42.9846 56.3851 42.779 56.3366 42.5371L54.8949 42.9846C54.9797 43.2749 55.1009 43.5168 55.2462 43.7224C55.3916 43.928 55.5613 44.0852 55.7551 44.2183C55.9489 44.3392 56.167 44.436 56.4093 44.4843C56.6516 44.5448 56.9182 44.569 57.209 44.569C57.5482 44.569 57.8632 44.5327 58.1418 44.4481C58.4205 44.3634 58.6749 44.2545 58.8809 44.0973C59.0868 43.9401 59.2443 43.7466 59.3534 43.5168C59.4624 43.287 59.523 43.0209 59.523 42.7185C59.523 42.3557 59.4503 42.0654 59.3049 41.8477C59.1595 41.63 58.9778 41.4486 58.7597 41.3276C58.5417 41.1946 58.3115 41.0978 58.057 41.0373C57.8026 40.9648 57.5724 40.9043 57.3543 40.8438C57.1363 40.7834 56.9545 40.7108 56.8091 40.6261C56.6638 40.5415 56.5911 40.4205 56.5911 40.2512C56.5911 40.106 56.6516 39.9972 56.7728 39.9125C56.894 39.8279 57.0272 39.7916 57.1968 39.7916C57.4028 39.7916 57.5845 39.84 57.742 39.9488C57.8995 40.0577 58.0207 40.2149 58.1055 40.4447L59.3897 39.9851ZM52.5203 42.3436C52.5203 42.658 52.4355 42.8878 52.278 43.0572C52.1083 43.2265 51.8903 43.2991 51.5995 43.2991C51.3087 43.2991 51.0907 43.2144 50.9574 43.0572C50.812 42.8878 50.7514 42.658 50.7514 42.3436V38.7031H49.1764V42.0412C49.1764 42.4403 49.2128 42.8032 49.2976 43.1176C49.3824 43.4321 49.5156 43.6982 49.7095 43.9159C49.9033 44.1336 50.1456 44.2908 50.4485 44.4118C50.7514 44.5206 51.127 44.5811 51.5753 44.5811C52.0235 44.5811 52.3991 44.5206 52.7141 44.4118C53.0291 44.3029 53.2957 44.1336 53.4895 43.9159C53.6955 43.6982 53.8409 43.4321 53.9378 43.1176C54.0347 42.8032 54.0832 42.4403 54.0832 42.0412V38.7031H52.5082V42.3436H52.5203ZM48.0012 44.4723V38.7031H45.99L44.9481 42.4766H44.936L43.9425 38.7031H41.9071V44.4723H43.361V40.8196H43.3731L44.3302 44.4723H45.5902L46.5474 40.8196H46.5595V44.4723H48.0012Z" fill="black"/>
<path d="M49.734 28.6039C49.5401 28.7369 49.3221 29.3417 49.4311 29.4626C49.6249 29.6924 49.8794 29.6682 50.0126 29.39C50.0611 29.2933 50.0974 29.1965 50.1217 29.0998C50.2186 28.8458 50.1822 28.749 49.9521 28.6039C49.8915 28.5555 49.8188 28.5555 49.734 28.6039ZM40.4293 37.3121C40.5505 37.1307 40.4293 36.8646 40.2233 36.7436C40.0416 36.6348 39.8841 36.6832 39.7266 36.8767C39.6782 36.9372 37.4731 40.5293 36.831 41.6662C36.5887 42.0411 37.0128 42.6701 37.4974 42.1016C37.6185 41.9323 39.4601 38.703 39.4722 38.703C39.448 38.9328 39.2299 40.7712 39.2299 41.4606C39.3753 42.8757 40.3566 42.283 40.078 41.6662C39.8599 41.2429 40.0901 40.0213 40.1385 39.5254C40.1991 39.0175 40.296 37.5298 40.4293 37.3121ZM37.2672 31.6155C37.1703 31.2043 37.0612 30.8051 37.0854 30.3818C37.0976 30.0915 37.0612 29.0514 37.5095 28.3862C37.9941 27.7935 38.7937 28.495 39.3995 28.2169C40.2718 27.7935 40.3082 27.2251 40.3082 27.1283C40.3203 26.959 40.2112 26.8501 40.0416 26.8864C39.7751 26.8985 39.4237 27.213 39.2541 27.3702C38.8422 27.7935 38.1274 27.2009 37.6791 27.1525C37.5337 27.1162 37.4247 27.1767 37.3399 27.3097C37.0249 27.975 36.722 28.3015 36.722 28.1806C36.6978 27.975 36.5524 27.6 36.2495 27.7089C36.1041 27.7573 36.0677 27.8782 36.0677 28.0112C36.0556 28.3983 36.4797 31.5187 36.5524 31.7606C36.6372 32.2323 37.3762 32.317 37.2672 31.6155ZM37.0612 48.6207C37.0006 48.4755 37.0854 48.3788 37.0976 48.3667C37.1339 48.4272 37.2429 48.6932 37.2793 48.7537C37.2672 48.7658 37.1703 48.8626 37.0612 48.6207ZM37.4247 47.3507C37.6912 46.7097 38.5635 43.9642 39.0966 45.0285C39.1814 45.2583 39.2178 45.4881 39.242 45.7179C39.351 47.254 38.7937 48.0643 37.9335 48.5602C37.8608 48.403 37.5701 47.7982 37.4731 47.6531C37.4126 47.5443 37.3762 47.4717 37.4247 47.3507ZM35.7527 50.5317C35.4983 51.3783 36.201 51.3783 36.3827 50.7856C36.4191 50.701 36.8916 49.3464 36.9158 49.2254C37.0612 49.2617 37.1824 49.4068 37.3156 49.4068C37.5095 49.4068 37.5822 49.5036 37.667 49.6487C38.4787 51.2694 38.7695 51.6686 39.6055 51.6081C39.9568 51.5597 40.3445 51.1001 40.2476 50.8098C40.0416 50.1809 39.6176 51.4388 38.7695 50.326C38.5151 49.9753 38.3818 49.5883 38.2606 49.177C38.4424 49.0198 39.3268 48.657 39.666 47.7136C39.9689 47 40.0658 46.238 40.0053 45.476C39.9932 44.7866 39.3026 43.3716 38.2849 44.327C37.776 44.9197 37.4853 45.73 37.352 46.0324C37.3278 46.105 37.3035 46.1654 37.2187 46.1896C37.0006 46.2501 36.9158 46.4194 36.8795 46.613C36.8431 46.8065 36.7099 47.4233 36.6493 47.508C36.3827 47.7982 36.3343 48.1369 36.3706 48.4997C36.3828 48.6691 36.3706 48.8263 36.3101 48.9835C36.1162 49.5036 35.9224 50.0116 35.7527 50.5317ZM28.8106 43.7465C29.3194 43.0692 30.4825 41.6541 30.4825 41.6783C30.2523 42.283 29.9616 43.166 29.7314 43.7707C29.6344 44.0247 29.6102 44.0489 29.3316 43.9884C29.1983 43.9642 28.956 43.8916 28.8106 43.7465ZM30.3977 43.9158C30.4825 43.4199 30.7248 43.0208 30.9308 42.5854C31.2458 42.8273 31.5245 43.045 31.8395 43.2748C31.3791 43.553 30.9308 43.7949 30.3977 43.9158ZM26.8964 46.0082C27.4658 45.8752 28.0352 44.7987 28.2654 44.5327C28.2654 44.5327 28.4835 44.7141 29.2104 44.9318C29.1741 45.0285 28.4108 47.254 28.4108 47.3386C28.4108 47.508 28.8227 48.0643 29.2589 46.746C29.3073 46.6734 29.6102 45.8389 29.8525 45.1737C29.9373 44.9439 30.0706 44.8229 30.3129 44.7746C30.7733 44.6778 32.4089 43.7586 32.4331 43.7707C32.3725 43.9521 31.6941 45.597 31.4154 46.238C31.0883 46.9758 30.8339 47.5926 30.5068 48.3304C30.2644 48.8989 30.8945 49.177 31.1973 48.6449C31.7546 47.6531 33.0873 44.327 33.2206 44.0126C33.2691 43.9037 33.3418 43.8554 33.475 43.8554C33.9597 43.8916 34.3716 43.9158 34.8925 43.7828C33.8143 45.2825 32.9904 46.613 32.3362 48.0522C32.1666 48.4272 32.0212 48.8142 31.9606 49.2254C31.9364 49.3585 31.9606 50.4712 32.9904 49.6004C33.1237 49.4794 35.3287 47.1693 35.4135 47.0846C35.3893 47.1693 34.4806 49.4673 34.2989 49.9269C33.8627 50.9792 34.5412 50.8824 34.6745 50.5679C34.7108 50.4833 35.8739 47.8103 36.407 46.5646C36.5887 46.2501 36.4191 45.3672 35.7043 45.9477C35.1349 46.3832 33.0025 48.6086 32.9298 48.6691C32.9541 48.5239 32.9904 48.3909 33.051 48.2699C33.5598 47.133 34.1656 46.0445 34.8925 45.0406C35.3045 44.4722 36.2979 43.432 36.4191 43.0087C36.4918 42.7668 36.3827 42.2347 35.8012 42.5733C35.1227 43.0208 34.3837 43.0813 33.5962 42.9241C33.5114 42.912 33.4145 42.8515 33.366 42.7789C33.257 42.6096 33.1237 42.5612 32.942 42.6338C32.8087 42.6822 32.6997 42.658 32.5906 42.5975C32.4089 42.4886 31.6941 41.8718 31.5123 41.6904C31.4154 41.5936 31.4033 41.509 31.4639 41.388C31.5971 40.9405 31.7668 40.4325 31.8758 40.0455C32.0575 39.344 31.9 38.957 31.3306 39.6222C30.7369 40.4325 28.4835 43.1297 28.3502 43.2143C28.3017 43.1901 28.2775 43.166 28.2412 43.1539C28.011 43.0208 27.8535 43.0571 27.7081 43.2748C27.5627 43.4683 27.5627 43.6739 27.6475 43.8916C27.696 44.0126 27.6717 44.0972 27.5869 44.1819C27.5264 44.2424 26.8964 44.956 26.654 45.2463C26.3633 45.5365 26.545 46.0082 26.8964 46.0082ZM24.231 42.7547C24.0613 42.9241 24.231 43.4078 24.6792 43.0692C25.079 42.7547 25.6969 41.9565 25.709 41.9565C25.6848 42.017 25.079 43.4562 25.079 44.2545C25.079 44.6657 25.394 44.8471 25.7696 44.6778C26.4723 44.2787 28.1442 42.4161 30.5673 38.6304C30.6764 38.4611 30.7248 38.1829 30.6279 38.0136C30.5068 37.8201 30.1796 37.9047 30.0221 38.062C29.9373 38.1587 29.1498 39.5496 27.8656 41.2671C26.6056 43.0087 25.9635 43.7102 25.8665 43.6739C25.7212 43.6014 26.3148 41.9565 26.969 40.1906C27.2114 39.5859 27.9746 38.6183 28.1564 38.3402C28.435 37.9047 27.805 37.2274 27.5142 37.7233C27.4173 37.8685 26.5813 39.5254 26.121 40.1423C25.6 40.88 24.3158 42.6096 24.231 42.7547ZM22.244 23.2701C22.2198 23.3548 22.2198 23.4394 22.2198 23.5362C22.2198 23.6571 22.0623 23.9716 22.0259 24.0684C21.8321 24.5038 21.6746 24.9513 21.5898 25.423C21.3354 26.8018 21.0567 28.1685 20.8023 29.5473C20.6327 30.4423 20.4994 31.3494 20.5115 32.2565C20.5115 32.5105 20.56 32.7403 20.6448 32.9701C20.7296 33.1757 20.875 33.3087 21.093 33.3571C21.3475 33.4055 21.7957 33.1152 21.3475 32.5589C21.2505 32.4742 21.2263 32.3774 21.2263 32.2565C21.1779 31.7727 21.2869 31.0954 21.3475 30.7326C21.4686 30.0069 21.6019 29.1481 21.7352 28.4225C21.7473 28.4225 22.0259 26.5357 22.0259 26.5357C22.0259 26.5841 21.8442 28.6523 21.8442 28.6885C21.7715 29.1723 21.7473 29.644 21.8079 30.1278C22.1229 32.704 22.8377 32.9459 22.9831 33.0306C23.2981 33.1999 23.7584 33.1515 24.0129 32.4137C24.3036 31.5066 24.4611 30.5753 24.6308 29.644C24.9458 27.9024 25.2365 26.1607 25.5394 24.407C25.6242 23.9232 25.6969 23.4394 26.0846 23.0766C26.2058 22.9677 26.1815 22.7984 26.0846 22.6654C25.9029 22.3872 25.5515 22.363 25.3456 22.617C25.2486 22.75 25.176 22.9194 25.1396 23.0766C24.9458 23.899 24.764 24.7215 24.6065 25.556C24.3279 26.9711 24.2188 28.2048 23.9402 29.6198C23.7948 30.3455 23.6252 31.2405 23.3829 31.9541C23.2133 32.3412 22.8983 31.7001 22.8134 31.4461C22.6559 30.914 22.5954 30.3697 22.5469 29.8255C22.4984 28.749 22.8256 26.8381 22.9588 25.6528C23.0315 24.9997 23.0558 24.3103 23.0921 23.6571C23.0921 23.6088 23.0436 23.2338 22.7165 23.0766C22.5227 22.9677 22.3046 23.0645 22.244 23.2701ZM32.4331 19.17C32.1666 19.4482 31.9 19.7142 31.6456 20.0045C31.2943 20.4036 31.0156 20.8632 30.7975 21.3591C30.4704 22.0969 30.2281 22.8468 30.0948 23.645C29.9737 24.3707 29.8404 25.1085 29.7071 25.8463C29.6829 25.81 29.2346 22.7742 29.1014 21.8671C29.1014 21.8671 29.3437 21.8913 29.6587 21.5889C29.8162 21.4438 30.0585 21.0084 29.9979 20.5125C29.901 20.065 29.6223 18.5894 29.5496 18.1782C29.8041 18.1661 29.7919 18.1661 29.8646 18.3596C30.0221 18.8192 30.1675 19.2909 30.3371 19.7505C30.6764 20.4278 31.27 19.8594 31.0641 19.4361C30.9308 19.1337 30.6521 18.4201 30.64 18.3596C31.1246 18.3475 32.312 18.7467 32.4331 19.17ZM30.1796 16.7148C29.9737 15.5657 30.325 14.2837 30.3735 13.9934C30.8944 14.3926 31.2458 14.8522 31.2458 15.5053C31.2458 15.9044 31.1125 16.231 30.7369 16.4124C30.5552 16.497 30.3856 16.5938 30.1796 16.7148ZM36.722 12.0099C36.7583 11.9857 36.7704 11.9252 36.7826 11.8769C36.831 11.6229 36.6614 11.4052 36.3827 11.3568C36.1768 11.3084 35.9708 11.7075 35.9708 11.7075C35.8012 12.3485 35.6922 13.0138 35.6195 13.679C35.5347 14.453 35.5104 15.215 35.571 15.9891C35.6316 17.3679 36.0314 18.2992 35.9102 18.2992C35.7285 18.2992 33.9112 14.4288 33.3902 13.3282C33.2448 13.0138 33.051 12.7235 32.8693 12.4211C32.7602 12.155 31.8273 11.901 32.2029 13.304C32.3483 13.8967 33.572 18.2629 33.6204 18.5411C33.4629 18.6136 33.257 18.7104 33.1116 18.783C33.0873 18.7588 32.7966 18.2024 32.0818 17.9605C31.5971 17.7791 30.4341 17.5372 30.3371 17.513C30.6037 17.0534 31.161 17.0897 31.4396 16.8236C31.8637 16.4729 32.5664 14.8884 30.9066 13.5217C30.7854 13.4129 29.9252 12.7356 29.6829 13.679C29.6587 13.7757 29.3316 15.4932 29.4891 16.6785C29.5254 16.8478 29.5254 17.0171 29.5375 17.1864C29.38 17.2953 29.2467 17.3921 29.0408 17.3074C28.9196 17.259 28.5441 17.3074 28.6773 17.7549C28.7379 17.9242 29.2225 19.9199 29.3316 20.4278C29.3437 20.5004 29.5254 21.2019 28.8954 21.2261C28.3017 21.2261 27.7565 19.0007 27.7202 18.9039C27.4537 18.3113 26.8842 18.8555 26.9933 19.1095C26.5087 19.5812 25.9877 20.0529 25.9392 20.0771C25.709 19.5691 25.491 19.0732 25.2608 18.5652C25.3698 18.4443 26.9085 16.7873 27.5627 16.1221C27.8292 15.856 28.2048 15.5537 28.4956 15.2997C28.5804 15.2392 28.6652 15.1908 28.7864 15.2029C28.9317 15.215 29.0408 15.1303 29.1014 14.9973C29.1498 14.8763 29.1135 14.7433 28.9923 14.6345C28.8227 14.4893 28.641 14.4651 28.435 14.5619C27.7323 14.8401 25.9756 16.6664 24.231 18.6983C23.9281 19.0369 23.0436 20.319 22.8619 20.5851C22.765 20.7302 22.3167 21.1293 22.5469 21.4075C22.6317 21.5285 23.0436 21.9276 23.6736 20.6214C23.9523 20.1255 24.7156 19.1579 24.7761 19.0732C25.0063 19.5812 25.2123 20.0287 25.4304 20.4883C25.2486 20.6093 25.1396 20.7665 25.2244 20.9842C25.3213 21.2261 25.5515 21.2019 25.7575 21.1898C25.806 21.2745 26.4602 22.6896 26.5087 22.7379C26.7994 23.0766 27.2719 22.7258 27.1265 22.4356C27.1023 22.363 26.3148 20.7665 26.3148 20.7423C26.7873 20.2464 26.7389 20.2343 27.2114 19.7384C27.4052 20.2222 28.2048 21.722 28.2048 21.7462C28.1685 21.9276 27.6354 23.5241 27.2962 24.6973C27.1144 25.302 26.654 26.705 26.545 26.7655C26.4117 26.5962 26.3512 26.4268 26.339 26.2212C26.3148 25.4109 25.5758 25.6286 25.5879 26.0882C25.6 26.4994 25.6969 27.2735 26.2542 27.4791C27.3083 27.8661 27.5142 26.2091 28.1079 24.2619C28.3139 23.5725 28.4714 23.0161 28.4956 22.9556C28.5077 22.9919 28.7621 24.7698 28.8833 25.6407C28.956 26.1728 29.0287 26.6929 29.2346 27.2009C29.5981 27.8056 30.2644 27.3702 30.3493 26.5478C30.4583 25.6528 30.8945 21.2624 32.7845 19.7263C32.7845 19.7263 33.4266 20.0892 33.3902 19.3756C33.3902 19.3756 33.6931 19.2426 33.7658 19.2063C33.79 19.2667 34.2383 20.8753 34.4322 21.6252C34.5291 22.0002 35.3408 22.0002 35.0864 21.2624C34.8925 20.6093 34.6018 19.6054 34.3958 18.9644C34.3958 18.9644 34.7835 18.8192 34.7108 18.5169C34.6502 18.2629 34.2383 18.3113 34.2141 18.3113C33.9354 17.259 33.2812 14.7433 33.2933 14.7917C33.5114 15.2997 34.7714 17.7549 35.0258 18.1782C35.2076 18.4806 35.7649 19.6901 36.4191 19.5449C36.7947 19.3998 36.6372 18.5894 36.5887 18.3354C36.4191 17.4525 36.3101 16.5696 36.2495 15.6746C36.1647 14.5256 36.2616 13.4008 36.5524 12.276C36.6008 12.1913 36.6251 12.0825 36.722 12.0099ZM28.4108 17.1864C28.3623 16.9566 28.2412 16.4245 28.2291 16.4124C28.1564 16.2793 27.5142 16.0979 27.696 16.6059C27.7565 16.7752 27.9504 17.3195 28.011 17.4042C28.0958 17.5009 28.4229 17.5251 28.4108 17.1864ZM27.2114 18.1056C27.3567 18.2266 27.6354 18.2387 27.5869 18.0694C27.4537 17.8033 27.3204 17.1985 27.3204 17.1864C27.1144 16.8599 26.8358 17.1139 26.8358 17.259C26.8358 17.5977 26.9812 17.8638 27.2114 18.1056ZM39.0966 14.3079C38.7937 14.4288 38.3818 14.5619 38.0789 14.6103C38.0426 14.1749 38.2606 11.901 38.4424 11.4052C38.6362 12.2518 38.9149 13.4975 39.0966 14.3079ZM45.2028 10.486C44.3911 10.7762 41.5439 11.7559 41.5439 11.7559C41.0835 11.26 40.7201 11.7922 40.817 12.022C40.3324 12.2034 39.8478 12.3485 39.3389 12.4816C39.3147 12.3727 39.0603 11.2842 38.9512 10.8125C38.8785 10.3771 38.297 9.88122 37.9699 10.8609C37.667 11.8043 37.5095 12.7719 37.4004 13.7515C37.3641 14.0781 37.3399 14.3926 37.3035 14.7191C37.0733 14.7554 36.8553 14.8038 36.8068 15.0699C36.7583 15.348 36.9522 15.4569 37.1824 15.5416C37.1703 15.6625 37.1703 15.7714 37.1581 15.8923C37.1218 16.3035 37.0733 16.7148 37.0612 17.1381C37.0491 17.4888 37.0612 17.8517 37.0854 18.2024C37.0976 18.4201 37.2429 18.529 37.461 18.529C37.7033 18.529 37.8972 18.3354 37.8972 18.0815C37.7518 17.0655 37.9699 15.7109 37.9941 15.4569C38.406 15.336 38.9149 15.1787 39.3268 15.0578C39.3753 15.1908 39.8357 16.6543 40.2233 17.0413C40.6837 17.4404 40.9866 16.7389 40.6837 16.5454C40.6232 16.485 40.5747 16.4003 40.5384 16.3156C40.3082 15.8318 39.9568 14.8522 39.9447 14.7917C40.0295 14.7433 40.4293 14.5256 40.5626 14.453C40.7322 14.3563 40.7322 13.8967 40.187 13.9934C40.0416 14.0297 39.8962 14.066 39.7266 14.1144C39.6539 13.8483 39.5933 13.5943 39.5328 13.3282C40.0416 13.0984 40.5262 12.917 41.0472 12.7356C41.1684 13.2194 42.6101 18.5773 42.6222 18.6136C42.9009 19.0369 43.3734 18.7225 43.2643 18.3113C43.1916 18.0331 41.7862 12.9049 41.6893 12.4937C41.762 12.4574 44.3426 11.5624 45.5299 11.1633C46.2326 11.0181 46.0024 10.1594 45.2028 10.486ZM46.899 14.066C46.8868 13.7878 46.8868 13.5217 46.899 13.2436C46.9838 12.3002 46.0751 12.3848 46.1357 13.0379C46.1478 13.3161 46.1599 13.5822 46.1599 13.8604C46.1599 14.0902 46.172 14.32 46.172 14.5498C46.172 14.828 46.2568 16.1947 46.2447 16.7873C46.1842 17.5977 45.5541 17.5009 45.3361 17.2106C44.7061 16.3398 44.4153 13.9571 44.1609 13.1831C44.0761 12.7477 43.1674 12.6751 43.3612 13.3161C43.5309 13.7153 43.7005 14.1144 43.8095 14.5256C43.9913 15.2029 44.2578 17.8879 45.6147 18.2145C46.1357 18.3475 46.9595 18.0452 46.9717 16.8962C46.9595 15.9528 46.9232 15.0094 46.899 14.066ZM34.0081 22.7984C34.0202 22.9194 33.9112 23.8144 33.8022 23.9958C33.6083 24.3344 33.4872 24.4917 33.0631 25.048C31.9121 26.1849 32.627 23.8506 32.845 23.4999C33.7174 22.1332 34.0081 22.7137 34.0081 22.7984ZM29.3194 30.5995C29.1862 30.6116 28.8591 30.6721 28.6531 29.9222C28.2654 28.7611 28.8712 28.5676 29.065 28.8579C29.3921 29.2328 29.586 29.6682 29.8404 30.0794C30.0706 30.406 29.4891 30.5874 29.3194 30.5995ZM26.3512 31.8453C25.3092 32.5347 26.1573 29.6561 26.4117 29.1602C26.4844 29.0272 26.7994 28.4829 26.9206 28.7611C27.2598 29.8255 26.9206 31.4582 26.3512 31.8453ZM46.9959 18.5411C46.5113 18.662 46.0751 18.8797 45.639 19.0853C45.324 19.2546 45.4693 19.6296 45.4815 19.678C45.4088 19.7868 45.0816 20.4278 44.3184 20.706C44.0761 20.8028 43.7974 20.6697 43.6884 20.4278C43.5793 20.1738 43.5309 19.9078 43.6884 19.6417C43.8216 19.3998 43.7126 19.1821 43.4339 19.1216C43.1068 19.049 42.913 19.1579 42.7797 19.4724C42.5132 20.1255 42.283 20.7302 41.8105 21.2503C40.926 22.0364 41.0835 20.5246 41.5439 19.8231C41.7984 19.2788 41.0957 19.1458 40.8534 19.424C40.7443 19.5207 40.5262 19.8836 40.4778 19.9078C40.0416 20.1859 38.9633 20.7544 38.9028 20.7786C38.9028 20.6939 39.2178 17.7065 39.2905 17.2469C39.3268 17.0171 39.3995 16.8962 39.1693 16.8357C39.0724 16.8115 38.9755 16.7994 38.8785 16.8115C38.6483 16.8357 38.5393 16.9687 38.5393 17.1985C38.5393 17.3316 38.5393 17.4646 38.5272 17.5977C38.406 18.5048 38.3091 19.4119 38.2849 20.319C38.2728 20.6093 38.2606 20.8995 38.2485 21.1777C38.1395 21.2745 38.0305 21.2987 37.8972 21.2624C36.2737 20.9358 36.5524 21.8792 36.9279 21.9639C37.0006 22.0002 37.1097 22.0485 37.1945 22.0848C37.1581 22.1695 36.5887 23.1612 36.2495 23.7055C36.1283 23.899 35.1954 25.4109 34.8441 24.1409C34.6745 23.391 34.7108 22.7621 34.6381 22.363C34.5533 22.0243 34.3474 21.8792 33.996 21.8671C33.6204 21.855 33.3054 21.976 33.0631 22.2662C32.8572 22.5081 32.6754 22.75 32.4937 23.004C32.1787 23.4757 31.9727 23.9958 31.8516 24.5642C31.6456 24.5763 31.5487 24.7094 31.5002 24.8908C31.4396 25.0722 31.367 25.2415 31.3306 25.423C31.161 26.1124 31.0035 26.7897 30.8581 27.4791C30.7248 28.108 30.4583 29.2933 30.2281 29.4989C30.0827 29.2691 29.3679 28.0475 28.8227 27.9629C28.4956 27.8782 28.2169 28.0596 28.1079 28.3983C27.9989 28.7369 27.9867 29.0877 28.011 29.4384C28.0352 29.9101 28.1442 30.3576 28.3866 30.7809C28.6773 31.3494 29.3316 31.4099 29.3921 31.422C28.8469 32.8008 28.5804 31.7243 28.4714 31.4582C28.326 31.1075 28.2291 30.8172 27.6596 30.6842C27.6596 30.5874 27.7081 29.3538 27.7081 28.8579C27.7081 28.5797 27.599 28.3378 27.3931 28.1443C26.969 27.7573 26.2058 27.6484 25.709 29.1361C25.5637 29.6561 25.4183 30.1762 25.3213 30.7084C25.2486 31.0833 25.2365 31.4703 25.2486 31.8574C25.3577 33.0427 26.3269 32.6193 26.4965 32.5831C26.4844 32.6314 26.3996 32.8854 26.3875 32.9459C26.3269 33.2604 26.86 33.6111 27.1144 32.9822C27.2477 32.5468 27.3567 32.0993 27.4779 31.6518C27.5021 31.5792 27.5021 31.2043 27.696 31.6518C27.805 31.8816 28.2291 32.6677 28.3623 32.7887C28.7379 33.1031 29.2467 33.0427 29.5375 32.6556C29.6708 32.4742 30.2887 31.301 30.3371 31.2405C30.4098 31.4703 30.7006 32.7403 31.476 33.4539C31.9606 33.9014 32.4937 33.5144 32.0939 33.0306C31.8273 32.5951 30.7854 31.9057 31.2579 30.1157C31.3912 29.8255 31.8758 29.2812 32.1666 28.9788C32.6027 28.4346 32.627 28.8458 32.6148 28.9425C32.5058 29.7529 32.3847 30.5753 32.2877 31.3857C32.2514 31.688 32.2393 32.0025 32.2635 32.317C32.3604 33.1757 33.257 33.0547 33.572 32.6919C33.996 32.2444 34.6866 29.6803 34.6987 29.6198C34.6987 29.7892 34.4443 31.422 34.4443 31.7969C34.4564 32.1597 34.5412 32.4258 34.8562 32.6314C35.1954 32.8249 36.0435 32.2565 35.9829 31.942C35.9102 31.6639 35.5468 31.8816 35.3166 31.9662C35.2076 31.9783 35.147 31.7848 35.2439 31.1438C35.3408 30.1278 35.3893 28.2652 35.4135 27.9871C35.4256 27.7089 35.3287 27.5758 35.1712 27.5395C34.9774 27.4912 34.8683 27.5758 34.7714 27.7814C34.6381 28.0717 33.4508 31.1801 33.3297 31.4945C33.3054 31.5671 33.0873 32.0993 32.9783 32.063C32.736 32.0267 33.3539 28.4346 33.3175 28.1685C33.257 27.8056 32.9177 27.5758 32.53 27.7814C32.3847 27.854 32.2271 27.9508 32.0939 28.0475C31.9 28.1927 31.6335 28.4346 31.4518 28.5918C31.5366 27.7693 31.7183 26.4147 31.9364 25.9914C32.1181 26.1607 32.3483 26.1487 32.4695 26.1366C32.8693 26.0882 33.1964 25.8826 33.4387 25.556C33.4508 25.5439 34.0687 24.794 34.202 24.7336C34.2747 24.8303 34.4806 25.3746 35.1227 25.423C36.2858 25.4834 37.1824 23.4273 37.7518 22.4718C37.7881 22.4114 37.8487 22.3509 37.8972 22.2783C38.0426 22.5202 38.2001 22.6533 38.2001 22.9194C38.2001 23.0403 38.2364 23.5483 38.2364 23.6692C38.2728 24.3223 37.8851 25.9793 38.7574 25.8342C39.2299 25.7253 39.0118 24.7578 38.9391 23.766C38.8664 22.6896 38.9149 21.5889 38.9149 21.5889C39.2662 21.3833 40.3203 20.8149 40.3687 20.7786C40.393 21.0447 40.393 21.2866 40.4293 21.5285C40.5262 22.0606 40.8412 22.3267 41.3864 22.2179C41.762 22.1453 42.1982 21.9881 42.9251 20.8632C42.9493 20.8995 43.2886 21.601 44.2214 21.4075C45.3603 21.093 45.8328 20.2222 45.8813 20.1497C46.0509 20.5125 46.1236 20.8028 45.954 21.976C45.9176 22.6412 46.693 22.5081 46.7172 22.0606C46.7293 21.6857 46.7293 21.1777 46.7172 20.8149C46.6688 20.1134 46.4749 19.7022 46.4507 19.557C46.6688 19.4603 47.008 19.3393 47.2018 19.2426C47.7834 19.0128 47.7592 18.3838 46.9959 18.5411ZM49.1282 14.6103C49.1888 13.9088 50.3155 12.6025 50.5336 12.7477C50.7517 12.9049 50.0732 14.1507 49.1282 14.6103ZM52.678 17.2348C52.4721 17.1381 52.254 17.0413 52.0601 16.9204C51.2726 16.4366 50.4246 16.0858 49.528 15.8439C49.3463 15.7956 49.1767 15.7351 48.9465 15.6625C49.0313 15.5778 49.3705 15.2997 49.4917 15.215C49.9157 14.9126 50.3155 14.5861 50.6426 14.1749C51.0061 13.7032 51.2363 13.1952 51.2726 12.5904C51.2969 12.1792 50.7638 11.8769 50.4367 12.0341C49.2857 12.6509 48.6194 13.7032 48.4376 14.9005C48.4134 15.0215 48.3649 15.1062 48.268 15.1666C46.9353 15.7351 48.1105 16.1705 48.1832 16.2068C48.159 16.3519 47.8076 17.2953 48.4497 20.9963C48.583 21.8187 49.3221 21.5647 49.2251 20.9842C49.1403 20.452 48.7526 18.1419 48.7769 17.4646C48.789 17.1623 48.8253 16.7027 48.8374 16.4003C48.8859 16.3882 50.5578 16.7268 52.0965 17.8758C52.7992 18.154 53.09 17.4042 52.678 17.2348ZM58.1784 23.379C58.0694 23.3669 57.924 23.3669 57.815 23.3669C57.7302 23.3669 57.3304 23.391 57.3667 22.9798C57.3909 22.8226 57.6454 22.3388 57.4394 22.0122C57.2819 21.7341 57.0396 21.6978 56.8215 21.9276C56.1673 22.6896 55.3071 23.5483 55.198 23.4757C55.1132 23.4273 55.1738 23.258 55.2102 23.1371C55.2829 22.8589 55.5979 22.1211 55.4767 21.722C55.3192 21.3228 55.1375 21.2261 54.7982 21.5043C54.459 21.7945 54.1319 22.109 53.8048 22.4235C52.0965 24.153 50.4003 27.1646 50.364 27.2372C50.1944 27.5516 50.5094 27.8298 50.7153 27.5879C51.1151 27.0195 51.5755 26.318 51.9753 25.7495C52.6901 24.7215 53.4534 23.9111 54.2652 22.9798C54.3136 22.9194 54.3984 22.7742 54.4711 22.8347C54.5075 22.9194 54.4105 23.4757 54.4227 23.6813C54.4348 23.8869 54.5317 24.0684 54.665 24.2135C54.8952 24.4675 55.198 24.4675 55.5857 24.2377C55.925 24.0321 56.4944 23.391 56.6034 23.2822C56.6761 23.4636 56.7973 23.645 56.9427 23.8144C57.3061 24.1409 58.0209 24.0684 58.2996 23.6813C58.3965 23.5362 58.3481 23.4031 58.1784 23.379Z" fill="#AFCA0B"/>
<path d="M19.7724 32.7646C20.0753 31.8213 16.4043 32.5953 16.5255 32.4865C16.586 32.1236 16.6103 32.2446 16.4891 32.0873C16.3195 31.8696 15.7258 31.918 15.3987 32.1841C15.1928 32.3413 14.6718 33.3936 14.6476 33.5508C14.5991 33.8169 14.6354 34.0588 14.9383 34.216C15.3866 34.4337 15.5804 34.4458 16.162 34.1314C17.737 33.2242 18.4518 33.6959 19.5785 33.067C19.6391 32.9703 19.6997 32.8735 19.7724 32.7646ZM31.3669 35.2199C30.749 35.1473 30.3492 34.9054 30.0221 34.3732C29.7919 34.0709 29.3436 33.3694 28.6046 33.7201C28.4228 33.8169 26.8236 34.8208 26.2057 35.2199C25.0547 35.9939 25.3334 33.6718 24.558 34.1072C24.4853 34.1314 22.2682 35.7521 21.4807 36.2963C20.6932 36.8769 20.2691 36.4415 20.0874 36.127C19.6391 35.4013 20.6811 34.2281 19.5422 33.9862C18.2095 33.6476 17.1312 37.3606 16.0651 37.1188C14.7808 36.8769 15.7864 35.3408 14.902 35.2804C13.7752 35.1352 13.121 37.5784 11.7641 37.8807C11.546 37.9291 10.601 38.0138 10.8433 37.3606C12.2123 33.9862 13.3512 30.4787 14.902 27.3704C16.4528 24.0443 17.9066 22.8107 18.3428 22.1817C19.3726 21.0327 18.1974 18.3598 16.2831 20.8997C15.9924 21.3835 15.7016 21.8552 15.4351 22.3511C13.7752 25.3748 12.0064 30.1643 9.60753 34.857C9.5106 35.0506 8.44444 37.3969 8.0204 37.409C7.97194 37.3969 7.17232 37.1671 6.88155 37.2276C6.20308 37.3727 5.27019 37.784 5.4277 39.3442C5.62154 40.2271 6.56655 40.1908 6.59078 40.5658C6.66347 40.7835 6.59078 41.1221 6.50597 41.3277C6.26366 41.8962 4.54327 45.6576 4.41 46.4801C4.20404 47.4477 4.55538 48.0766 5.06423 48.2217C6.0577 48.4515 6.02135 48.1854 6.67559 46.2987C6.80886 45.8753 8.60194 41.9325 9.12291 41.0495C10.1285 39.4289 13.1574 38.5701 13.6662 38.9088C13.9327 39.0297 15.1079 39.5861 15.8833 39.4289C16.6345 39.2232 17.1191 38.6911 17.313 38.5338C17.6643 38.0621 18.3912 38.8483 18.8395 38.9209C20.3176 39.066 22.8618 36.4535 23.2132 37.5421C23.3343 37.7114 23.092 39.1265 23.0678 39.4409C23.0436 39.6949 23.4797 40.2392 23.8916 39.8643C24.0855 39.6587 25.9513 37.1429 27.9867 35.7762C28.544 35.2562 29.3921 36.1149 29.5374 36.2237C30.1069 36.6471 30.6642 36.7075 31.2578 36.3205C31.585 36.1028 32.0332 35.2924 31.3669 35.2199ZM58.033 19.2669C58.0451 18.9645 58.1178 15.6022 55.6947 16.3279C54.9072 16.6061 53.6835 17.7309 53.2474 18.2268C52.581 18.9887 51.9026 19.7386 51.2726 20.5248C49.8793 22.2422 48.6193 24.0564 47.4562 25.9311C46.9352 26.7657 46.3779 27.5881 45.8327 28.4105C45.7116 28.6041 45.3118 28.9548 45.0937 28.3138C44.815 27.5155 44.4758 27.1769 45.6025 24.2258C45.7237 23.8266 45.4935 23.5485 45.0816 23.5485C44.9968 23.5485 44.3668 23.6573 44.185 23.5122C43.8216 23.4154 43.6398 22.6293 43.1068 22.6051C42.7918 22.5567 41.8225 22.5567 41.665 23.1493C41.6166 23.3549 41.5802 23.5726 41.5196 23.7783C41.4712 23.9597 41.5923 24.3225 41.6771 24.4797C42.5737 25.6529 42.816 26.0279 42.7069 26.5842C42.6706 26.9471 41.4712 28.6645 41.0835 29.2451C40.2839 30.4425 37.1217 34.4942 36.4917 35.4255C35.5467 36.8648 35.2559 36.3931 35.1469 36.1391C35.0863 36.006 34.9046 35.3166 34.8319 35.1352C34.6986 34.8449 34.4079 34.7603 34.1413 34.9296C33.2205 35.6674 33.0994 37.9533 33.2327 39.0902C33.4023 40.2029 33.8021 40.6504 34.0202 40.7956C34.6744 41.3398 35.5588 39.9852 35.7648 39.7191C38.091 36.6471 42.9371 30.261 43.0462 30.128C43.131 30.4425 43.555 31.2407 43.3854 32.1962C43.24 33.1759 43.0098 34.1314 42.6585 35.0626C42.4768 35.5343 41.9679 36.7317 41.9194 36.8648C41.8346 37.1429 41.8952 37.7114 43.0704 37.4695C44.2698 37.2881 44.7908 35.9698 44.8877 35.7521C45.5056 34.4095 46.1114 33.0549 46.7293 31.7124C47.1533 30.769 47.5289 29.8014 48.0256 28.8943C49.2614 26.5963 50.6547 24.3951 52.1812 22.2785C52.8112 21.3956 53.4534 20.5127 54.1682 19.7023C54.4589 19.3758 55.1495 18.5896 55.5857 18.4808C56.7124 18.1179 55.8159 19.9442 57.0759 20.2224C57.609 20.2829 58.0088 19.7991 58.033 19.2669ZM49.007 34.7966C48.6314 34.857 48.4012 34.603 48.4012 34.1072C48.486 32.8856 50.061 32.3171 50.4366 32.293C50.691 32.2567 50.8728 32.4018 50.9697 32.6195C51.5512 33.8169 49.6612 34.7603 49.007 34.7966ZM78.4112 31.3979C78.4233 31.1681 78.3506 31.0593 78.1083 31.0472C77.5752 31.0109 76.8362 31.1681 76.7998 30.4666C76.7393 30.2006 77.0785 29.0032 77.1875 28.6282C77.2239 28.4952 77.4541 27.1406 74.825 29.8498C74.3767 30.2852 73.9285 30.8537 73.3712 31.3012C73.0925 31.4463 72.6806 31.5431 72.6806 30.4666C72.62 29.7772 71.7235 30.2852 71.6023 30.3457C70.7663 30.8053 69.8092 31.5431 68.4523 32.0269C67.895 32.0752 67.6527 31.7971 67.7617 31.2528C67.8223 30.9625 68.0404 30.0675 68.0404 29.8982C68.0282 29.4991 67.7859 29.2935 67.3982 29.366C67.0105 29.4386 66.7682 29.62 66.5623 29.9587C66.4411 30.1522 65.7263 31.5794 65.1205 32.1236C64.6601 32.5953 64.1271 32.813 63.4728 32.7405C62.3098 32.426 63.2426 31.1923 63.2911 30.3941C63.3396 30.0796 63.1578 29.8982 62.8428 29.9103C61.6676 29.8498 61.1345 33.188 58.1299 33.575C56.3126 33.8048 59.3172 28.9306 60.1047 27.4551C60.7347 25.6408 67.2165 25.0966 71.9173 23.6573C73.044 23.2582 73.3833 23.0405 73.25 22.6897C73.1046 22.2785 72.1112 22.3874 70.9117 22.593C68.3432 23.113 62.649 24.2983 62.4915 24.3346C61.8372 24.3467 61.5949 24.0685 61.7161 23.5485C61.7646 23.3066 62.3461 22.0608 62.8307 20.8513C63.1094 19.9684 62.3824 19.3395 61.4253 20.9481C60.8195 22.0124 60.2138 23.0647 59.6322 24.1411C59.3899 24.5886 59.0265 24.8547 58.5418 24.9998C56.9547 25.4473 53.211 26.5479 52.9203 26.6689C51.3574 27.5518 51.9632 28.5799 52.5932 28.4347C52.7385 28.4226 55.8522 27.6365 57.3666 27.2373C58.0572 27.0559 57.9845 27.2736 57.9482 27.443C57.924 27.5518 55.622 32.7767 53.9743 33.4178C53.8774 33.4782 53.0172 34.1072 52.9809 32.8372C52.993 32.2688 53.0778 31.7245 53.1868 31.1681C53.2959 30.636 52.9082 30.261 52.3751 30.3699C52.2418 30.3941 52.0358 30.5392 50.6547 30.5876C50.0974 30.6481 49.5885 30.8053 49.1403 31.156C45.9902 33.4178 46.3537 35.4497 46.5597 35.7883C47.4683 37.3123 49.2735 36.7196 49.7339 36.6229C50.3397 36.4777 50.8606 36.1391 51.3453 35.7521C51.9147 35.232 52.5447 35.5343 52.7507 35.619C53.2232 35.8004 53.6714 35.752 54.0834 35.4981C55.4403 34.4337 55.4403 34.5063 55.7916 34.8328C56.0945 35.111 56.4822 35.3771 56.882 35.4618C57.9361 35.7762 59.9836 34.6635 60.3107 34.5184C61.2799 34.1434 61.3405 35.232 62.2492 35.2804C63.1821 35.2924 64.3209 34.7119 64.854 34.4458C65.4477 34.1434 65.3265 34.8933 66.3442 34.6514C67.5557 34.3128 68.9975 33.2968 69.5184 33.1033C70.8633 32.426 70.9602 33.0912 70.8996 33.3089C70.8511 33.454 70.1727 34.5184 70.0394 34.9659C70.0152 35.2683 70.5604 35.1957 70.7663 35.1957C71.1056 35.1594 71.5296 34.9175 72.3171 34.2644C73.9406 32.68 74.9946 32.0148 75.2491 31.8938C75.5277 31.7608 75.8548 31.7487 76.1093 31.9664C76.3879 32.2083 76.715 32.3776 77.0785 32.426C77.7448 32.5107 78.3627 32.039 78.4112 31.3979ZM65.6536 59.0223V54.1844H65.6657L68.4281 59.0223H68.9248V53.5918H68.3796V57.7766H68.3554L65.9807 53.5918H65.1205V59.0223H65.6536ZM62.4309 59.0223H63.0367V53.5918H62.4309V59.0223ZM60.8559 59.0223V58.5144H58.2753V53.5918H57.6695V59.0223H60.8559ZM52.8839 59.0223V56.555H54.1561L55.2586 59.0223H55.9128L54.7618 56.4341C55.4039 56.2284 55.8401 55.793 55.8401 55.019C55.8401 54.1119 55.198 53.5918 54.0228 53.5918H52.2782V59.0223H52.8839ZM52.8839 54.1119H53.9743C54.7497 54.1119 55.2464 54.3296 55.2464 55.0553C55.2464 55.7447 54.8103 56.047 53.9864 56.047H52.896V54.1119H52.8839ZM47.3108 53.5918V59.0223H50.7274V58.5144H47.9166V56.4341H49.8066V55.9261H47.9166V54.0998H50.5699V53.5918H47.3108ZM42.4889 54.1119H43.7852C44.4758 54.1119 44.815 54.4021 44.815 55.0069C44.815 55.4665 44.4637 55.9261 43.555 55.9261H42.501V54.1119H42.4889ZM42.4889 56.4341H43.5308C44.391 56.4341 44.9483 56.8453 44.9483 57.5347C44.9483 58.212 44.5121 58.5144 43.6277 58.5144H42.501V56.4341H42.4889ZM41.8831 59.0223H43.5671C45.0452 59.0223 45.542 58.3813 45.542 57.5589C45.542 56.8816 45.1058 56.3373 44.5 56.1922L44.4879 56.1801C45.1422 55.9503 45.4087 55.527 45.4087 54.9343C45.4087 54.1965 44.8393 53.5918 43.8821 53.5918H41.8831V59.0223Z" fill="black"/>
</svg>
