<svg width="130" height="16" viewBox="0 0 130 16" fill="none" xmlns="http://www.w3.org/2000/svg">
<g clip-path="url(#clip0_70_37)">
<path d="M0 8.0225C0 3.40278 3.40208 0.157715 7.84055 0.157715C10.8146 0.157715 13.1802 1.41968 14.5997 4.01123L12.3917 5.40842L12.0087 5.31828C11.0399 3.67321 9.7331 2.92954 7.93068 2.92954C5.22704 2.92954 3.19931 5.02532 3.19931 7.99997C3.19931 10.9521 5.29463 13.0704 7.97574 13.0704C9.86828 13.0704 11.13 12.3267 12.0988 10.7042L12.4593 10.6141L14.6222 12.0112C13.1352 14.6028 10.8146 15.8422 7.84055 15.8422C3.37955 15.8873 0 12.6197 0 8.0225Z" fill="black"/>
<path d="M18.3398 8.0225C18.3398 3.51546 21.6969 0.157715 26.4057 0.157715C31.092 0.157715 34.4716 3.51546 34.4716 8.0225C34.4716 12.4845 31.0695 15.8873 26.4057 15.8873C21.7419 15.8873 18.3398 12.4845 18.3398 8.0225ZM31.3398 8.0225C31.3398 5.07039 29.2671 2.90701 26.3832 2.90701C23.5218 2.90701 21.4265 5.07039 21.4265 8.0225C21.4265 10.907 23.4993 13.1155 26.3832 13.1155C29.2671 13.1155 31.3398 10.907 31.3398 8.0225Z" fill="black"/>
<path d="M42.1317 0.563477V12.8001H48.7781L48.4401 15.4818H39.1802V0.563477H42.1317Z" fill="black"/>
<path d="M55.74 0.563477V12.8001H62.4089L62.071 15.4818H52.811V0.563477H55.74Z" fill="black"/>
<path d="M75.4541 0.563552L75.747 3.11003H69.3709V6.64806H75.1612V9.1044H69.3709V12.9128H75.747L75.4541 15.4593H66.4194V0.541016H75.4541V0.563552Z" fill="black"/>
<path d="M80.0503 8.0225C80.0503 3.40278 83.4524 0.157715 87.8908 0.157715C90.8648 0.157715 93.2305 1.41968 94.6499 4.01123L92.4645 5.40842L92.0815 5.31828C91.1127 3.67321 89.8059 2.92954 88.0035 2.92954C85.2999 2.92954 83.2721 5.02532 83.2721 7.99997C83.2721 10.9521 85.3675 13.0704 88.0486 13.0704C89.9411 13.0704 91.2028 12.3267 92.1716 10.7042L92.5321 10.6141L94.695 12.0112C93.208 14.6028 90.8874 15.8422 87.9134 15.8422C83.4073 15.8873 80.0503 12.6197 80.0503 8.0225Z" fill="black"/>
<path d="M97.8042 3.24517V0.563477H110.399V3.24517H105.6V15.4818H102.603V3.24517H97.8042Z" fill="black"/>
<path d="M113.71 8.0225C113.71 3.51546 117.09 0.157715 121.776 0.157715C126.463 0.157715 129.842 3.51546 129.842 8.0225C129.842 12.4845 126.44 15.8873 121.776 15.8873C117.113 15.8873 113.71 12.4845 113.71 8.0225ZM126.71 8.0225C126.71 5.07039 124.638 2.90701 121.754 2.90701C118.892 2.90701 116.797 5.07039 116.797 8.0225C116.797 10.907 118.892 13.1155 121.754 13.1155C124.638 13.1155 126.71 10.907 126.71 8.0225Z" fill="black"/>
</g>
<defs>
<clipPath id="clip0_70_37">
<rect width="130" height="16" fill="white"/>
</clipPath>
</defs>
</svg>
