<svg width="102" height="32" viewBox="0 0 102 32" fill="none" xmlns="http://www.w3.org/2000/svg">
<g clip-path="url(#clip0_71_74)">
<path d="M57.9155 7.46603L101.63 13.4089L101.651 14.6741L45.1869 24.2741L45.0917 24.2901L44.9957 24.2767L0.826032 18.3339L0.804688 17.0687L57.8195 7.45264L57.9155 7.46603ZM5.1795 17.6285L45.0659 22.9955L97.3119 14.1125L57.8417 8.74639L5.1795 17.6285Z" fill="#111111"/>
<path d="M57.9155 0.280483L101.63 6.22334L101.651 7.48852L45.1869 17.0885L45.0917 17.1046L44.9957 17.0912L0.826032 11.1483L0.804688 9.88316L57.8195 0.26709L57.9155 0.280483ZM5.1795 10.443L45.0659 15.8099L97.3119 6.92691L57.8417 1.56084L5.1795 10.443Z" fill="#111111"/>
<path d="M101.636 20.1378L101.657 21.4012L45.648 31.4584L45.5502 31.4753L45.4523 31.4628L0.82734 25.52L0.794434 24.2557L57.2587 13.7414L57.3619 13.7227L101.636 20.1378ZM4.9718 24.7798L45.5208 30.1798L97.548 20.8378L57.3895 15.0191L4.9718 24.7798Z" fill="#111111"/>
</g>
<defs>
<clipPath id="clip0_71_74">
<rect width="102" height="32" fill="white"/>
</clipPath>
</defs>
</svg>
