<svg width="77" height="56" viewBox="0 0 77 56" fill="none" xmlns="http://www.w3.org/2000/svg">
<g clip-path="url(#clip0_70_48)">
<path d="M53.8992 0.241665L53.8696 0L10.3509 4.34419L10.3512 4.3465L10.3208 4.34789L12.0422 21.6695H16.3149L13.8936 6.7274L53.8992 0.241665Z" fill="#8000FF"/>
<path d="M66.5447 47.5936L66.5629 47.6829L15.4508 55.9668L13.5425 36.7651H18.7612L20.752 49.0501L63.3872 44.8238L62.6765 36.7651H64.9265L66.5517 47.5924L66.5447 47.5936Z" fill="#8000FF"/>
<path d="M59.8213 4.38805L60.0622 4.3584L62.6606 21.6694H61.345L59.8213 4.38805Z" fill="#8000FF"/>
<path d="M4.16286 34.4514C3.35285 34.4514 2.62917 34.2717 1.9918 33.9124C1.3677 33.553 0.876391 33.0607 0.517868 32.4349C0.172623 31.796 0 31.0641 0 30.2388V24.6685H2.19098V30.1389C2.19098 30.6049 2.26401 31.0042 2.41008 31.3368C2.56942 31.6563 2.79515 31.9027 3.08729 32.0756C3.39269 32.2487 3.75121 32.3351 4.16286 32.3351C4.80023 32.3351 5.2849 32.1488 5.61687 31.7761C5.96211 31.3902 6.13474 30.8445 6.13474 30.1389V24.6685H8.32572V30.2388C8.32572 31.0773 8.14645 31.816 7.78793 32.4549C7.44269 33.0806 6.95801 33.5729 6.33392 33.9323C5.70983 34.2785 4.98613 34.4514 4.16286 34.4514Z" fill="black"/>
<path d="M17.4803 34.2517V28.7213C17.4803 28.0825 17.2745 27.5568 16.8628 27.1441C16.4644 26.7316 15.9466 26.5252 15.3092 26.5252C14.8843 26.5252 14.5059 26.6184 14.1739 26.8047C13.8419 26.9912 13.583 27.2507 13.3971 27.5833C13.2112 27.9162 13.1182 28.2955 13.1182 28.7213L12.2618 28.2422C12.2618 27.5103 12.4211 26.8646 12.7398 26.3055C13.0585 25.7334 13.4967 25.2873 14.0544 24.9679C14.6254 24.6353 15.2627 24.4688 15.9665 24.4688C16.6835 24.4688 17.3209 24.6553 17.8786 25.0278C18.4363 25.3871 18.8745 25.8597 19.1932 26.4453C19.5119 27.0177 19.6712 27.6167 19.6712 28.2422V34.2517H17.4803ZM10.9272 34.2517V24.6684H13.1182V34.2517H10.9272Z" fill="black"/>
<path d="M23.4937 34.2518V23.4107C23.4937 22.6787 23.653 22.0331 23.9717 21.4741C24.3038 20.9151 24.7551 20.4759 25.3262 20.1564C25.9104 19.837 26.581 19.6772 27.3379 19.6772C27.9221 19.6772 28.42 19.7771 28.8317 19.9767C29.2435 20.1764 29.6285 20.4625 29.987 20.8352L28.5728 22.2528C28.4135 22.093 28.2408 21.9666 28.0549 21.8734C27.8691 21.7802 27.6301 21.7337 27.3379 21.7337C26.8067 21.7337 26.3952 21.8801 26.103 22.1729C25.8241 22.4524 25.6847 22.8584 25.6847 23.3908V34.2518H23.4937ZM21.2031 26.665V24.6685H28.5728V26.665H21.2031Z" fill="black"/>
<path d="M30.2607 34.2517V24.6684H32.4517V34.2517H30.2607ZM32.4517 28.921L31.6948 28.5417C31.6948 27.3306 31.9603 26.3523 32.4916 25.6068C33.0359 24.8481 33.8525 24.4688 34.9415 24.4688C35.4195 24.4688 35.8509 24.5554 36.2361 24.7283C36.6211 24.9014 36.9797 25.1809 37.3117 25.5668L35.8776 27.0443C35.7049 26.858 35.5123 26.7248 35.3 26.645C35.0875 26.5651 34.8419 26.5252 34.563 26.5252C33.9521 26.5252 33.4476 26.7182 33.0493 27.1042C32.6509 27.4903 32.4517 28.0958 32.4517 28.921Z" fill="black"/>
<path d="M42.4819 34.4514C41.6189 34.4514 40.8355 34.2317 40.1316 33.7925C39.4413 33.3533 38.8901 32.7611 38.4784 32.0156C38.08 31.2569 37.8809 30.4118 37.8809 29.48C37.8809 28.5351 38.08 27.69 38.4784 26.9444C38.8901 26.1858 39.4413 25.5868 40.1316 25.1476C40.8355 24.6952 41.6189 24.4688 42.4819 24.4688C43.2123 24.4688 43.8563 24.6285 44.414 24.9479C44.985 25.2542 45.4366 25.6801 45.7684 26.2257C46.1004 26.7716 46.2663 27.3905 46.2663 28.0825V30.8377C46.2663 31.5299 46.1004 32.1488 45.7684 32.6944C45.4497 33.2403 45.0049 33.6727 44.4339 33.9922C43.8631 34.2985 43.2123 34.4514 42.4819 34.4514ZM42.8404 32.375C43.6505 32.375 44.3012 32.1023 44.7924 31.5564C45.2971 31.0108 45.5493 30.312 45.5493 29.4601C45.5493 28.8879 45.4366 28.3819 45.2107 27.9427C44.985 27.5035 44.6663 27.1641 44.2546 26.9245C43.8563 26.6717 43.385 26.5451 42.8404 26.5451C42.3095 26.5451 41.838 26.6717 41.4263 26.9245C41.0279 27.1641 40.7092 27.5035 40.4702 27.9427C40.2445 28.3819 40.1316 28.8879 40.1316 29.4601C40.1316 30.0325 40.2445 30.5382 40.4702 30.9774C40.7092 31.4166 41.0279 31.7629 41.4263 32.0156C41.838 32.2552 42.3095 32.375 42.8404 32.375ZM45.4099 34.2517V31.6762L45.7883 29.3403L45.4099 27.0243V24.6684H47.6008V34.2517H45.4099Z" fill="black"/>
<path d="M50.4307 34.2517V24.6684H52.6216V34.2517H50.4307ZM56.7845 34.2517V28.5417C56.7845 27.9028 56.5853 27.4105 56.187 27.0642C55.7886 26.7049 55.2972 26.5252 54.713 26.5252C54.3147 26.5252 53.9561 26.605 53.6375 26.7648C53.3319 26.9245 53.0863 27.1575 52.9005 27.4635C52.7144 27.7564 52.6216 28.1158 52.6216 28.5417L51.7652 28.0625C51.7652 27.3306 51.9245 26.6983 52.2432 26.1658C52.5619 25.6336 52.9933 25.2209 53.5379 24.928C54.0822 24.6219 54.6931 24.4688 55.3703 24.4688C56.0475 24.4688 56.6582 24.6153 57.2028 24.908C57.7471 25.2009 58.1788 25.6136 58.4974 26.1458C58.8161 26.6783 58.9755 27.3172 58.9755 28.0625V34.2517H56.7845ZM63.1383 34.2517V28.5417C63.1383 27.9028 62.9392 27.4105 62.5408 27.0642C62.1424 26.7049 61.651 26.5252 61.0669 26.5252C60.6816 26.5252 60.3299 26.605 60.0112 26.7648C59.6925 26.9245 59.4402 27.1575 59.2543 27.4635C59.0683 27.7564 58.9755 28.1158 58.9755 28.5417L57.7406 28.0625C57.8069 27.3306 58.0194 26.6983 58.3779 26.1658C58.7365 25.6336 59.1946 25.2209 59.7523 24.928C60.3231 24.6219 60.9474 24.4688 61.6246 24.4688C62.3149 24.4688 62.9392 24.6153 63.4969 24.908C64.0546 25.2009 64.4993 25.6136 64.8314 26.1458C65.1632 26.6783 65.3293 27.3172 65.3293 28.0625V34.2517H63.1383Z" fill="black"/>
<path d="M72.4268 34.4514C71.4708 34.4514 70.6077 34.2386 69.8375 33.8125C69.0806 33.3732 68.4765 32.7743 68.025 32.0156C67.5868 31.2569 67.3677 30.4052 67.3677 29.4601C67.3677 28.5151 67.5868 27.67 68.025 26.9245C68.4632 26.1658 69.0541 25.5668 69.7977 25.1276C70.5546 24.6884 71.3911 24.4688 72.3073 24.4688C73.1971 24.4688 73.9807 24.6752 74.6579 25.0877C75.3482 25.5004 75.886 26.066 76.2713 26.7847C76.6696 27.5035 76.8686 28.322 76.8686 29.2404C76.8686 29.4002 76.8554 29.5667 76.8287 29.7396C76.8156 29.8993 76.7889 30.079 76.749 30.2786H68.9014V28.4818H75.6137L74.7971 29.2005C74.7706 28.6149 74.6577 28.1224 74.4585 27.7231C74.2593 27.3238 73.9739 27.0177 73.602 26.8047C73.2435 26.5919 72.7987 26.4852 72.2675 26.4852C71.7098 26.4852 71.2252 26.605 70.8135 26.8446C70.402 27.0842 70.0833 27.4236 69.8574 27.8628C69.6318 28.2889 69.5191 28.8012 69.5191 29.4002C69.5191 29.9991 69.6383 30.525 69.8773 30.9774C70.1164 31.43 70.455 31.7828 70.8932 32.0356C71.3314 32.2751 71.8361 32.3949 72.4069 32.3949C72.8983 32.3949 73.3499 32.3085 73.7616 32.1354C74.1864 31.9625 74.545 31.7096 74.8369 31.3767L76.2314 32.7942C75.7665 33.3401 75.2022 33.7526 74.5384 34.0321C73.8743 34.3116 73.1706 34.4514 72.4268 34.4514Z" fill="black"/>
</g>
<defs>
<clipPath id="clip0_70_48">
<rect width="77" height="56" fill="white"/>
</clipPath>
</defs>
</svg>
