<svg width="175" height="16" viewBox="0 0 175 16" fill="none" xmlns="http://www.w3.org/2000/svg">
<path d="M2.25977 15.0002V0.480177H2.27977L9.27977 10.4202L8.85977 10.3602L15.8398 0.480177H15.8598V15.0002H14.8998V2.74018L14.9798 3.22018L9.05977 11.5602H9.01977L3.05977 3.22018L3.21977 2.78018V15.0002H2.25977Z" fill="black"/>
<path d="M24.3848 0.800176H33.1448V1.74018H25.3648V7.38018H32.3648V8.32018H25.3648V14.0602H33.4248V15.0002H24.3848V0.800176Z" fill="black"/>
<path d="M41.1582 0.800176H42.1382V14.0602H49.9182V15.0002H41.1582V0.800176Z" fill="black"/>
<path d="M57.209 0.800176H58.189V15.0002H57.209V0.800176Z" fill="black"/>
<path d="M65.5768 0.800176H74.8768V1.74018H70.6968V15.0002H69.7168V1.74018H65.5768V0.800176Z" fill="black"/>
<path d="M79.9651 15.0002L85.9651 0.180176H86.0451L92.0451 15.0002H90.9451L85.7251 1.74018L86.4051 1.36018L80.9451 15.0002H79.9651ZM82.8651 9.38018H89.1651L89.4451 10.3002H82.6251L82.8651 9.38018Z" fill="black"/>
<path d="M109.459 15.0002V0.800176H112.959C114.332 0.800176 115.499 1.02018 116.459 1.46018C117.432 1.88684 118.219 2.45351 118.819 3.16018C119.419 3.86684 119.859 4.64018 120.139 5.48018C120.419 6.32018 120.559 7.15351 120.559 7.98018C120.559 9.06018 120.372 10.0335 119.999 10.9002C119.626 11.7535 119.112 12.4868 118.459 13.1002C117.819 13.7135 117.086 14.1868 116.259 14.5202C115.432 14.8402 114.559 15.0002 113.639 15.0002H109.459ZM110.439 14.0602H113.379C114.232 14.0602 115.032 13.9202 115.779 13.6402C116.526 13.3602 117.179 12.9535 117.739 12.4202C118.312 11.8868 118.759 11.2468 119.079 10.5002C119.399 9.74018 119.559 8.88018 119.559 7.92018C119.559 7.10684 119.419 6.33351 119.139 5.60018C118.872 4.85351 118.466 4.19351 117.919 3.62018C117.372 3.04684 116.699 2.59351 115.899 2.26018C115.099 1.92684 114.166 1.76018 113.099 1.76018H110.439V14.0602Z" fill="black"/>
<path d="M126.379 15.0002L132.379 0.180176H132.459L138.459 15.0002H137.359L132.139 1.74018L132.819 1.36018L127.359 15.0002H126.379ZM129.279 9.38018H135.579L135.859 10.3002H129.039L129.279 9.38018Z" fill="black"/>
<path d="M156.26 0.800176V15.0002H155.28V8.32018H146.72V15.0002H145.74V0.800176H146.72V7.40018H155.28V0.800176H156.26Z" fill="black"/>
<path d="M164.779 0.800176H165.759V14.0602H173.539V15.0002H164.779V0.800176Z" fill="black"/>
</svg>
